<svg id="Ebene_1" data-name="Ebene 1" xmlns="http://www.w3.org/2000/svg" viewBox="0 0 283.46 45.35"><defs><style>.cls-1{fill:#334C5C;}</style></defs><title>RE_Logo_2016-Blau-negativ</title><path class="cls-1" d="M53,11.75h7.25a12,12,0,0,1,4,.56,6.41,6.41,0,0,1,2.45,1.46,5,5,0,0,1,1.23,2,7.25,7.25,0,0,1,.34,2.16,7,7,0,0,1-.72,3.32,5.67,5.67,0,0,1-2.41,2.26l4.16,8.69H64.68l-3.44-7.68h-4v7.68H53V11.75ZM60.55,21a5.45,5.45,0,0,0,1.66-.21,2.58,2.58,0,0,0,1-.6,2,2,0,0,0,.53-0.93,4.71,4.71,0,0,0,.14-1.2,3.2,3.2,0,0,0-.17-1,2.16,2.16,0,0,0-.59-0.89,2.83,2.83,0,0,0-1.15-.6,6.68,6.68,0,0,0-1.85-.21h-3V21h3.32Z"/><path class="cls-1" d="M71.73,11.75h14v3.64H76v4.47h9.11v3.67H76v5H86.29l-0.43,3.64H71.73V11.75Z"/><path class="cls-1" d="M106.53,25.13a9.45,9.45,0,0,1-.76,3,7.41,7.41,0,0,1-1.69,2.41,7.57,7.57,0,0,1-2.64,1.59,10.51,10.51,0,0,1-3.63.57A10.08,10.08,0,0,1,93.73,32a8,8,0,0,1-3-2.18A9.36,9.36,0,0,1,89,26.38a15.17,15.17,0,0,1-.6-4.4A14.09,14.09,0,0,1,89,17.51a9.7,9.7,0,0,1,1.89-3.38,8.18,8.18,0,0,1,3-2.15,10,10,0,0,1,4-.75,10.65,10.65,0,0,1,3.4.49,6.64,6.64,0,0,1,2.44,1.4,7,7,0,0,1,1.59,2.21,11.68,11.68,0,0,1,.89,2.9l-4.24.54a5.72,5.72,0,0,0-1.22-2.84,3.6,3.6,0,0,0-2.85-1,4.25,4.25,0,0,0-3.74,1.85A9.14,9.14,0,0,0,92.85,22a8.68,8.68,0,0,0,1.36,5.25,4.32,4.32,0,0,0,3.65,1.83,3.76,3.76,0,0,0,2.91-1,5.11,5.11,0,0,0,1.16-2.91h4.59Z"/><path class="cls-1" d="M118.59,32.73a10.67,10.67,0,0,1-4.1-.75,8.33,8.33,0,0,1-3.07-2.15,9.63,9.63,0,0,1-1.93-3.38,13.83,13.83,0,0,1-.67-4.47,13.82,13.82,0,0,1,.67-4.47,9.52,9.52,0,0,1,1.95-3.38A8.47,8.47,0,0,1,114.52,12a11.56,11.56,0,0,1,8.17,0,8.21,8.21,0,0,1,3.05,2.15,9.59,9.59,0,0,1,1.91,3.38,14.1,14.1,0,0,1,.66,4.47,14.39,14.39,0,0,1-.65,4.47,9.41,9.41,0,0,1-1.89,3.38A8.21,8.21,0,0,1,122.72,32,10.75,10.75,0,0,1,118.59,32.73Zm0-3.67a4.61,4.61,0,0,0,4-1.83A8.9,8.9,0,0,0,123.9,22a8.91,8.91,0,0,0-1.32-5.23,5.28,5.28,0,0,0-8,0A8.91,8.91,0,0,0,113.23,22a8.9,8.9,0,0,0,1.32,5.25A4.61,4.61,0,0,0,118.56,29.06Z"/><path class="cls-1" d="M131.84,11.75h7.25a12,12,0,0,1,4,.56,6.41,6.41,0,0,1,2.45,1.46,5,5,0,0,1,1.23,2,7.25,7.25,0,0,1,.34,2.16,7,7,0,0,1-.72,3.32A5.67,5.67,0,0,1,144,23.53l4.16,8.69H143.5l-3.44-7.68h-4v7.68h-4.21V11.75ZM139.37,21a5.45,5.45,0,0,0,1.66-.21,2.58,2.58,0,0,0,1-.6,2,2,0,0,0,.53-0.93,4.71,4.71,0,0,0,.14-1.2,3.2,3.2,0,0,0-.17-1,2.16,2.16,0,0,0-.59-0.89,2.83,2.83,0,0,0-1.15-.6,6.68,6.68,0,0,0-1.85-.21h-3V21h3.32Z"/><path class="cls-1" d="M150.55,11.75h7.65a10.07,10.07,0,0,1,7.32,2.55q2.62,2.55,2.62,7.57a12.54,12.54,0,0,1-.73,4.47,8.69,8.69,0,0,1-2.11,3.24,8.79,8.79,0,0,1-3.35,2,14.12,14.12,0,0,1-4.47.66h-6.94V11.75Zm7,16.83a7.61,7.61,0,0,0,2.84-.47,4.67,4.67,0,0,0,1.91-1.36,5.72,5.72,0,0,0,1.07-2.11,10.07,10.07,0,0,0,.34-2.74,11.31,11.31,0,0,0-.3-2.71,5.3,5.3,0,0,0-1-2,4.38,4.38,0,0,0-1.71-1.29,6.4,6.4,0,0,0-2.57-.46h-3.38V28.57h2.75Z"/><path class="cls-1" d="M169.59,27.6h4.1v4.61h-4.1V27.6Z"/><path class="cls-1" d="M189,25H177.18a10.57,10.57,0,0,0,.37,2.91,6.43,6.43,0,0,0,1.09,2.22,4.75,4.75,0,0,0,1.83,1.42,6.32,6.32,0,0,0,2.61.5,5.61,5.61,0,0,0,3.31-.9,4.21,4.21,0,0,0,1.68-2.48h0.57a5.16,5.16,0,0,1-.59,1.52A4.37,4.37,0,0,1,187,31.48a5.52,5.52,0,0,1-1.63.86,7,7,0,0,1-2.25.33,5.9,5.9,0,0,1-4.83-2A8.58,8.58,0,0,1,176.58,25a11.38,11.38,0,0,1,.47-3.44,6.91,6.91,0,0,1,1.33-2.48,5.51,5.51,0,0,1,2.06-1.49,6.86,6.86,0,0,1,2.67-.5,5.94,5.94,0,0,1,2.71.57,4.86,4.86,0,0,1,1.83,1.59,6.89,6.89,0,0,1,1,2.37,12.83,12.83,0,0,1,.32,2.92V25Zm-5.88-7.37a5.45,5.45,0,0,0-4.24,1.73,7.73,7.73,0,0,0-1.69,5.09h11.21a12.48,12.48,0,0,0-.27-2.69,6.39,6.39,0,0,0-.89-2.16,4.18,4.18,0,0,0-1.65-1.45A5.46,5.46,0,0,0,183.11,17.68Z"/><path class="cls-1" d="M196.79,32.21l-6.08-14.65h0.63l5.79,14,5.79-14h0.6l-6.08,14.65h-0.66Z"/><path class="cls-1" d="M211.63,17.11a6.73,6.73,0,0,1,3,.63,5.8,5.8,0,0,1,2.06,1.69,7,7,0,0,1,1.18,2.47,11.47,11.47,0,0,1,.37,3,11.76,11.76,0,0,1-.37,3,7.17,7.17,0,0,1-1.18,2.49A5.69,5.69,0,0,1,214.66,32a6.83,6.83,0,0,1-3.05.63,6.74,6.74,0,0,1-3-.63,5.78,5.78,0,0,1-2.06-1.69,7,7,0,0,1-1.18-2.46,12.05,12.05,0,0,1,0-5.95,7.14,7.14,0,0,1,1.18-2.49,5.69,5.69,0,0,1,2.08-1.71A6.82,6.82,0,0,1,211.63,17.11Zm-6,7.82a11.12,11.12,0,0,0,.33,2.74A6.63,6.63,0,0,0,207,30a5,5,0,0,0,1.86,1.56,7,7,0,0,0,5.57,0,5.14,5.14,0,0,0,1.88-1.58,6.63,6.63,0,0,0,1-2.31,11.34,11.34,0,0,0,.33-2.75,11.16,11.16,0,0,0-.33-2.74,6.64,6.64,0,0,0-1-2.29,5.14,5.14,0,0,0-1.88-1.58,6.12,6.12,0,0,0-2.79-.59,6,6,0,0,0-2.78.59A5.12,5.12,0,0,0,207,19.86a6.78,6.78,0,0,0-1,2.32A11.29,11.29,0,0,0,205.59,24.93Z"/><path class="cls-1" d="M221.84,11.75h0.6V32.21h-0.6V11.75Z"/><path class="cls-1" d="M237.69,32.21l-0.6,0V29.57a6.77,6.77,0,0,1-2.57,2.34,6.89,6.89,0,0,1-3.14.76,4.44,4.44,0,0,1-3.61-1.4,5.9,5.9,0,0,1-1.18-3.9v-9.8h0.6v9.69a5.51,5.51,0,0,0,1,3.6,4,4,0,0,0,3.24,1.25,6.2,6.2,0,0,0,2.35-.43,6.51,6.51,0,0,0,2.06-1.41,4.38,4.38,0,0,0,.66-0.75,3.06,3.06,0,0,0,.36-0.73,3.44,3.44,0,0,0,.16-0.89q0-.5,0-1.19V17.56h0.6V32.21Z"/><path class="cls-1" d="M242.71,18.14h-2.26V17.56h2.26v-4.1h0.6v4.1h5v0.57h-5V28.31A4.37,4.37,0,0,0,244,31a2.7,2.7,0,0,0,2.26.92,5.16,5.16,0,0,0,2-.4l0.17,0.52a4.37,4.37,0,0,1-.95.33,5.51,5.51,0,0,1-1.26.13,4.41,4.41,0,0,1-1.69-.29,2.58,2.58,0,0,1-1.1-.85,3.63,3.63,0,0,1-.6-1.36,8.14,8.14,0,0,1-.19-1.83V18.14Z"/><path class="cls-1" d="M251,11.75h0.6v2.64H251V11.75Zm0,5.82h0.6V32.21H251V17.56Z"/><path class="cls-1" d="M261.88,17.11a6.73,6.73,0,0,1,3,.63A5.8,5.8,0,0,1,267,19.43a7,7,0,0,1,1.18,2.47,11.47,11.47,0,0,1,.37,3,11.76,11.76,0,0,1-.37,3A7.17,7.17,0,0,1,267,30.33,5.69,5.69,0,0,1,264.91,32a6.83,6.83,0,0,1-3.05.63,6.74,6.74,0,0,1-3-.63,5.78,5.78,0,0,1-2.06-1.69,7,7,0,0,1-1.18-2.46,12.05,12.05,0,0,1,0-5.95,7.14,7.14,0,0,1,1.18-2.49,5.69,5.69,0,0,1,2.08-1.71A6.82,6.82,0,0,1,261.88,17.11Zm-6,7.82a11.12,11.12,0,0,0,.33,2.74,6.63,6.63,0,0,0,1,2.29,5,5,0,0,0,1.86,1.56,7,7,0,0,0,5.57,0,5.14,5.14,0,0,0,1.88-1.58,6.63,6.63,0,0,0,1-2.31,11.34,11.34,0,0,0,.33-2.75,11.16,11.16,0,0,0-.33-2.74,6.64,6.64,0,0,0-1-2.29,5.14,5.14,0,0,0-1.88-1.58,6.12,6.12,0,0,0-2.79-.59,6,6,0,0,0-2.78.59,5.12,5.12,0,0,0-1.86,1.59,6.78,6.78,0,0,0-1,2.32A11.29,11.29,0,0,0,255.83,24.93Z"/><path class="cls-1" d="M272.08,17.56h0.6v2.61a6.78,6.78,0,0,1,2.64-2.32,7.32,7.32,0,0,1,3.21-.75,4.69,4.69,0,0,1,3.7,1.39,5.7,5.7,0,0,1,1.23,3.91v9.8h-0.6V22.52a5.41,5.41,0,0,0-1.06-3.6,4.13,4.13,0,0,0-3.32-1.25,6.76,6.76,0,0,0-2.42.43,6.27,6.27,0,0,0-2.14,1.4,5.06,5.06,0,0,0-.67.75,2.78,2.78,0,0,0-.37.73,3.43,3.43,0,0,0-.16.89q0,0.5,0,1.19v9.14h-0.6V17.56Z"/><path class="cls-1" d="M17.21,0.48L10,4.66v0h0v0l-0.27.15c-2.38,1.38-3.17,6.36-3.39,8.24l12.8-7.38c0.22-.11,4.24-2.06,7.57-2.06h0.08L21.27,0.48A4.57,4.57,0,0,0,17.21.48Z"/><path class="cls-1" d="M2,9.24a4.57,4.57,0,0,0-2,3.52v8.81c0,2.73,3.93,5.85,5.45,7V13.75c0-.24.34-4.77,2-7.66Z"/><path class="cls-1" d="M5.62,29.58h0c-0.2-.13-4-2.63-5.62-5.51v6.21A4.57,4.57,0,0,0,2,33.8l7.54,4.35C12,39.52,16.66,37.72,18.4,37Z"/><path class="cls-1" d="M19.4,37.35c-0.22.11-4.31,2.1-7.65,2.06l5.46,3.15a4.56,4.56,0,0,0,4.06,0l7.54-4.35C31.19,36.83,32,31.85,32.2,30Z"/><path class="cls-1" d="M33,14.51V29.29c0,0.24-.34,4.77-2,7.66l5.46-3.15a4.57,4.57,0,0,0,2-3.52V21.46C38.48,18.71,34.55,15.6,33,14.51Z"/><path class="cls-1" d="M36.44,9.24L28.91,4.89c-2.39-1.37-7.09.43-8.83,1.18l12.76,7.37v0A24.45,24.45,0,0,1,36,16a13.4,13.4,0,0,1,2.46,3v-6.2A4.57,4.57,0,0,0,36.44,9.24Z"/></svg>